<?xml version="1.0" encoding="UTF-8"?>
<svg xmlns="http://www.w3.org/2000/svg" version="1.1" viewBox="0 0 336 224">
  <!-- Generator: Adobe Illustrator 29.8.2, SVG Export Plug-In . SVG Version: 2.1.1 Build 3)  -->
  <defs>
    <style>
      .st0 {
        fill: #545964;
      }

      .st1 {
        fill: #141342;
      }

      .st2 {
        fill: #5d245d;
      }

      .st3 {
        fill: #fff;
        stroke: #5d245d;
        stroke-miterlimit: 10;
      }
    </style>
  </defs>
  <g id="Layer_2">
    <rect class="st3" width="336" height="224"/>
  </g>
  <g id="Layer_1">
    <path class="st1" d="M12.59,85.1c9.43,19.16,21.67,36.98,36.22,52.62,3.65,3.93,7.59,7.54,12.26,10.22s9.39,4.37,14.35,5.74c5.07,1.4,10.27,2.5,15.47,3.29,5.64.86,11.34,1.13,16.9-.35,10.84-2.88,19.37-10.88,27.23-18.46,2.32-2.24-1.22-5.77-3.54-3.54-6.49,6.26-13.4,13-22,16.21-9.73,3.63-20.3,1.14-30.04-1.27-4.74-1.17-9.44-2.63-13.81-4.84s-8.24-5.29-11.71-8.87c-7.07-7.3-13.5-15.27-19.36-23.56-6.66-9.42-12.56-19.37-17.65-29.72-.6-1.21-2.31-1.54-3.42-.9-1.23.72-1.5,2.2-.9,3.42h0Z"/>
    <path class="st1" d="M134.82,138.4c14.53-9.35,30-19.37,47.77-20.36,7.92-.44,15.6,1.16,22.66,4.79,6.48,3.34,12.25,7.84,17.91,12.39,6.56,5.27,13.08,10.68,20.47,14.76,1.71.95,4.56-.68,3.67-2.82-9.76-23.4-30.46-39.8-51.03-53.46-11.08-7.36-23.24-13.99-36.57-15.94-7.4-1.09-14.92-.93-22.38-.98s-15.31-.07-22.97-.04c-17.14.06-34.28.32-51.42.77-3.21.09-3.22,5.09,0,5,14.97-.4,29.95-.65,44.93-.74,7.49-.05,14.98-.06,22.47-.03s14.59-.08,21.86.29c6.73.34,13.23,1.7,19.54,4.09s11.76,5.41,17.24,8.82c10.38,6.44,20.44,13.71,29.55,21.86,9.91,8.88,18.81,19.3,23.97,31.69l3.67-2.82c-13.29-7.36-23.58-19.03-36.89-26.36-7.32-4.03-15.34-6.33-23.73-6.34-9.14-.01-18.08,2.38-26.44,5.94-9.47,4.04-18.16,9.62-26.8,15.18-2.7,1.74-.19,6.07,2.52,4.32h0Z"/>
    <path class="st1" d="M63.58,77.73c-16.94-1.61-33.99-3.09-50.9-.39-1.33.21-2.08,1.88-1.75,3.08.39,1.42,1.74,1.96,3.08,1.75,16.41-2.63,33.14-1,49.57.57,1.35.13,2.5-1.24,2.5-2.5,0-1.46-1.15-2.37-2.5-2.5h0Z"/>
    <path class="st1" d="M10.36,82.03l2.24,3.23c.16.29.37.53.64.7.24.22.52.37.85.45.33.1.66.12,1,.04.33-.02.64-.11.93-.3.53-.34,1-.86,1.15-1.49s.13-1.38-.25-1.93l-2.24-3.23c-.16-.29-.37-.53-.64-.7-.24-.22-.52-.37-.85-.45-.33-.1-.66-.12-1-.04-.33.02-.64.11-.93.3-.53.34-1,.86-1.15,1.49s-.13,1.38.25,1.93h0Z"/>
    <path class="st1" d="M66.13,82.83l8.69-.43c1.3-.06,2.56-1.1,2.5-2.5-.06-1.3-1.1-2.57-2.5-2.5l-8.69.43c-1.3.06-2.56,1.1-2.5,2.5.06,1.3,1.1,2.57,2.5,2.5h0Z"/>
    <path class="st2" d="M16.55,84.46c3.48,4.28,6.91,8.6,10.45,12.83,3.2,3.82,6.58,7.47,10.49,10.57,7.41,5.89,16.1,10.1,25.36,12.16,5.18,1.15,10.52,1.65,15.83,1.43,3.21-.13,3.22-5.13,0-5-8.78.36-17.64-1.3-25.66-4.92-8.54-3.85-15.54-9.63-21.59-16.72-3.87-4.54-7.57-9.24-11.34-13.88-.85-1.05-2.65-.89-3.54,0-1.04,1.04-.85,2.48,0,3.54h0Z"/>
    <path class="st2" d="M18.53,84.82c4.19,5.99,8.27,12.07,12.24,18.21.73,1.13,2.22,1.6,3.42.9,1.13-.66,1.63-2.28.9-3.42-3.97-6.15-8.05-12.22-12.24-18.21-.77-1.1-2.19-1.62-3.42-.9-1.09.64-1.67,2.31-.9,3.42h0Z"/>
    <path class="st2" d="M21.77,90.82l7.59,10.14c.41.54.82.96,1.49,1.15.6.16,1.4.09,1.93-.25,1.03-.67,1.74-2.3.9-3.42-2.53-3.38-5.06-6.76-7.59-10.14-.41-.54-.82-.96-1.49-1.15-.6-.16-1.4-.09-1.93.25-1.03.67-1.74,2.3-.9,3.42h0Z"/>
    <path class="st2" d="M21.44,91.23c10.15,14.57,24.37,27.12,42.22,30.72,5.07,1.02,10.26,1.32,15.4.69,1.34-.16,2.5-1.03,2.5-2.5,0-1.22-1.15-2.66-2.5-2.5-17.02,2.08-32.99-6.17-44.54-18.19-3.21-3.34-6.12-6.95-8.77-10.75-.77-1.11-2.19-1.62-3.42-.9-1.1.64-1.67,2.31-.9,3.42h0Z"/>
    <path class="st2" d="M20.98,83.86c1.89,2.38,4.13,4.42,6.59,6.2.5.36,1.36.41,1.93.25s1.21-.61,1.49-1.15c.31-.58.46-1.28.25-1.93s-.59-1.09-1.15-1.49c-.29-.21-.57-.42-.86-.64l.51.39c-1.94-1.51-3.7-3.24-5.23-5.17-.37-.47-1.2-.73-1.77-.73-.61,0-1.35.27-1.77.73s-.76,1.1-.73,1.77l.09.66c.12.42.33.79.64,1.1h0Z"/>
    <path class="st2" d="M20.17,80.3c-.05-.01-.1-.02-.15-.04l.6.25c-.07-.03-.13-.07-.19-.11l.51.39c-.06-.05-.11-.1-.16-.15l.39.51c-.05-.06-.08-.12-.11-.19l.25.6c-.03-.07-.05-.14-.06-.21l-1.75,3.08c.3-.11.62-.18.94-.23l-.66.09c.39-.05.78-.05,1.17,0l-.66-.09c.06,0,.11.02.17.03.33.1.66.12,1,.04.33-.02.64-.11.93-.3.29-.16.53-.37.7-.64.22-.24.37-.52.45-.85l.09-.66c0-.45-.12-.87-.34-1.26l-.39-.51c-.31-.31-.68-.52-1.1-.64-.6-.1-1.21-.19-1.82-.13s-1.22.13-1.79.34c-.33.08-.61.23-.85.45-.27.18-.49.41-.64.7l-.25.6c-.12.44-.12.89,0,1.33,0,.05.02.09.03.14,0,.03.02.05.03.07.08.2.17.43.27.63.02.05.05.09.08.14.14.2.29.41.46.59.03.03.07.07.11.09.19.15.38.33.6.45.02.01.04.02.06.03.2.1.43.19.64.27.05.02.1.03.15.04.33.1.66.12,1,.04.33-.02.64-.11.93-.3.29-.16.53-.37.7-.64.22-.24.37-.52.45-.85l.09-.66c0-.45-.12-.87-.34-1.26l-.39-.51c-.31-.31-.68-.52-1.1-.64h0Z"/>
    <path class="st2" d="M21.28,88.56l.55,1.53,3.67-2.82c-.48-.33-.95-.66-1.43-1l-2.52,4.32c.06.04.12.08.18.13l-.51-.39c.09.07.18.15.26.25l-.39-.51c.04.05.07.11.1.16l-.25-.6s.03.08.03.12l-.09-.66s0,.08,0,.12l.09-.66s-.01.05-.02.08l.25-.6s-.02.04-.03.06l.39-.51s-.04.05-.07.07l.51-.39s-.06.04-.1.05l.6-.25s-.08.03-.12.03l.66-.09s-.07,0-.1,0l.66.09s-.05-.01-.08-.02l.6.25s-.03-.02-.05-.03l.51.39s-.02-.02-.03-.03l.39.51s-.01-.02-.02-.03l.25.6s-.01-.04-.02-.06l.09.66s0-.03,0-.04c.01-.34-.06-.67-.22-.96-.1-.31-.27-.58-.52-.8-.23-.24-.49-.42-.8-.52-.3-.16-.62-.23-.96-.22l-.66.09c-.42.12-.79.33-1.1.64l-.39.51c-.23.39-.34.81-.34,1.26,0,.01,0,.03,0,.04,0,.03.08.65.09.67,0,0,0,.01,0,.02.03.11.1.25.14.33.08.18.08.22.14.33,0,.02.38.5.39.51,0,0,0,0,.01.01s0,0,.01.01c.01.01.49.38.51.39.01,0,.02.01.03.02,0,0,.01,0,.02,0,.08.04.52.23.61.26.02,0,.05.01.07.02.07.01.6.09.67.09,0,0,.01,0,.02,0,.02,0,.03,0,.05,0,0,0,.01,0,.02,0,.1,0,.57-.07.67-.09.01,0,.03,0,.04,0,.22-.05.66-.27.68-.28.03-.01.05-.02.07-.04,0,0,.01,0,.02-.01.07-.05.44-.34.51-.39.01-.01.02-.02.04-.03s.02-.02.03-.03c.04-.04.36-.46.39-.51,0,0,0-.01.01-.02,0-.01.01-.02.02-.03.02-.05.24-.56.25-.6,0,0,0-.02,0-.03,0-.02,0-.03,0-.05.01-.06.09-.61.09-.67,0,0,0-.02,0-.03,0-.02,0-.04,0-.06-.01-.11-.04-.3-.05-.35-.01-.1-.03-.25-.05-.36-.05-.25-.19-.49-.29-.71-.02-.04-.04-.08-.07-.12-.13-.19-.28-.37-.42-.55-.02-.02-.04-.04-.06-.07-.04-.04-.08-.07-.12-.11-.2-.17-.41-.32-.61-.48-.05-.04-.1-.07-.15-.1-.29-.18-.6-.28-.93-.3-.33-.07-.66-.06-1,.04-.33.08-.61.23-.85.45-.27.18-.49.41-.64.7l-.25.6c-.12.44-.12.89,0,1.33l.25.6c.22.38.52.67.9.9.48.33.95.66,1.43,1l.6.25.66.09.66-.09c.33-.08.61-.23.85-.45.19-.11.34-.26.45-.45.15-.16.26-.34.32-.55.11-.19.17-.41.17-.63.07-.33.06-.66-.04-1l-.55-1.53c-.08-.33-.23-.61-.45-.85-.18-.27-.41-.49-.7-.64-.29-.18-.6-.28-.93-.3-.33-.07-.66-.06-1,.04l-.6.25c-.38.22-.67.52-.9.9l-.25.6c-.12.44-.12.89,0,1.33h0Z"/>
    <path class="st2" d="M27.7,90.25c2.83,2.57,4.54,5.98,6.53,9.18,2.33,3.74,5.12,6.75,8.8,9.19,7.33,4.87,15.88,8.15,24.52,9.72,4.94.89,9.96,1.27,14.98,1.07l-2.16-3.76c-.34.6-.8.74-1.32.6-3.11-.82-4.44,4-1.33,4.82,2.71.71,5.58-.45,6.97-2.9.9-1.59-.22-3.84-2.16-3.76-8.38.34-16.7-.97-24.58-3.85-3.89-1.42-7.62-3.26-11.14-5.44s-5.96-4.55-8.07-7.88c-2.31-3.65-4.28-7.58-7.52-10.52-2.37-2.16-5.92,1.36-3.54,3.54h0Z"/>
    <path class="st2" d="M25.07,83.8c3.25,2.71,5.49,6.22,7.71,9.77s4.73,7.42,7.95,10.44c6.74,6.33,15.61,9.81,24.55,11.65,5.76,1.19,11.63,1.79,17.47,2.39,1.35.14,2.5-1.25,2.5-2.5,0-1.47-1.15-2.36-2.5-2.5-9.34-.96-18.98-1.92-27.68-5.69-3.74-1.62-7.33-3.74-10.36-6.48s-5.24-6.06-7.4-9.5c-2.5-3.99-5.04-8.07-8.7-11.12-1.04-.86-2.52-1.02-3.54,0-.89.89-1.04,2.67,0,3.54h0Z"/>
    <path class="st2" d="M26.59,79.6c-1.9.08-3.79,0-5.67-.26l.66.09c-.25-.03-.5-.07-.75-.11-.69-.11-1.3-.11-1.93.25-.52.3-1.01.9-1.15,1.49-.15.64-.11,1.36.25,1.93.33.51.87,1.05,1.49,1.15,2.35.37,4.71.55,7.09.45.66-.03,1.3-.26,1.77-.73.43-.43.76-1.15.73-1.77-.06-1.31-1.1-2.56-2.5-2.5h0Z"/>
    <path class="st0" d="M44.11,84.8c5.35,11.07,14.62,19.9,25.29,25.84,12.21,6.8,26.14,9.71,40.02,10.09,8.48.24,16.94-.48,25.33-1.67,1.34-.19,2.07-1.89,1.75-3.08-.4-1.44-1.73-1.94-3.08-1.75-25.34,3.59-53.88,1.7-73.55-16.59-4.73-4.4-8.63-9.55-11.44-15.37-.59-1.22-2.32-1.54-3.42-.9-1.24.73-1.49,2.2-.9,3.42h0Z"/>
    <path class="st0" d="M132.39,118.8c7.59.9,15.47-.1,22.57-2.98,3.57-1.45,6.9-3.42,10.47-4.85s7.45-1.96,11.35-2.15c7.59-.36,15.44-.79,22.46,2.59s12.74,8.04,18.45,12.71c6.7,5.48,12.98,11.45,18.82,17.84,2.17,2.38,5.7-1.16,3.54-3.54-5.28-5.78-10.92-11.22-16.91-16.26-5.91-4.98-12.14-9.95-18.88-13.77-3.37-1.91-7.01-3.44-10.84-4.12-4.11-.73-8.26-.73-12.42-.61s-8.26.23-12.3,1.07-7.56,2.64-11.15,4.42c-7.93,3.92-16.33,5.68-25.16,4.63-1.34-.16-2.5,1.26-2.5,2.5,0,1.48,1.15,2.34,2.5,2.5h0Z"/>
    <path class="st0" d="M46.43,85.41c7.43,9.38,16.52,17.71,27.16,23.32,11.65,6.14,24.72,7.94,37.7,8.93s26.4.5,38.86-3.58c3.11-1.02,6.15-2.27,9.09-3.72s5.85-3.14,9.1-3.94c5.78-1.42,12.3-.79,18.08.37,12.88,2.58,24.68,9.34,33.34,19.23,1.94,2.22,5.18-.61,3.93-3.03-1.4-2.71-3.32-5.14-5.64-7.12l-3.03,3.93c2.25,1.6,4.51,3.2,6.76,4.8l2.52-4.32c-3.64-2.25-7.29-4.5-10.71-7.08s-6.47-4.97-10.37-6.56-8.13-2.77-12.19-4.1c-4.28-1.4-8.57-2.79-12.85-4.19-2.65-.86-4.53,3.39-1.93,4.57,7.28,3.3,14.88,5.78,22.73,7.29,1.32.25,2.7-.37,3.08-1.75.34-1.22-.41-2.82-1.75-3.08-7.41-1.42-14.66-3.66-21.53-6.78l-1.93,4.57c4.21,1.37,8.41,2.74,12.62,4.11s8.1,2.45,12.01,4.01c3.6,1.44,6.54,3.92,9.6,6.22,3.42,2.58,7.06,4.83,10.71,7.08,1.15.71,2.75.25,3.42-.9.73-1.25.21-2.64-.9-3.42-2.25-1.6-4.51-3.2-6.76-4.8s-5.19,2.09-3.03,3.93c2.03,1.73,3.63,3.73,4.85,6.11l3.93-3.03c-7.87-9-18.35-15.61-29.77-19.07-5.64-1.71-11.57-2.64-17.47-2.71-3.48-.04-7.06.23-10.4,1.27s-6.27,2.77-9.35,4.27c-11.6,5.65-24.73,7.14-37.49,6.81-6.45-.17-12.9-.77-19.29-1.67s-12.74-2.22-18.71-4.73c-12.33-5.2-22.6-14.38-30.83-24.77-.84-1.06-2.66-.88-3.54,0-1.05,1.05-.84,2.47,0,3.54h0Z"/>
    <path class="st0" d="M178.36,98.8c-9.36-1.39-17.76,2.62-26.4,5.52s-18.25,3.67-27.61,3.69c-17.68.05-36.25-.91-52.13-9.49-4.54-2.45-8.89-5.29-13.17-8.15-3.64-2.44-7.18-5.17-9.41-9.02-1.61-2.78-5.93-.27-4.32,2.52,2.18,3.77,5.38,6.66,8.87,9.19s7.42,5.01,11.23,7.32c8.02,4.86,16.64,8.24,25.84,10.08s18.32,2.37,27.53,2.52c9.68.15,19.5.02,28.97-2.23,5.03-1.2,9.78-3.2,14.66-4.86s9.65-2.99,14.61-2.26c1.33.2,2.69-.33,3.08-1.75.32-1.18-.4-2.88-1.75-3.08h0Z"/>
    <path class="st0" d="M221.74,125.81c.55.35,1.09.73,1.61,1.13l-.51-.39c.77.6,1.49,1.24,2.18,1.93l3.54-3.54c-1.35-1.16-2.69-2.33-4.04-3.49l-2.43,4.18c.47.12.94.27,1.39.46l-.6-.25c.73.32,1.42.72,2.05,1.21l-.51-.39c.49.38.93.81,1.34,1.28s1.18.73,1.77.73,1.35-.27,1.77-.73.76-1.1.73-1.77l-.09-.66c-.12-.42-.33-.79-.64-1.1-1.5-1.75-3.64-3.03-5.88-3.59-.55-.14-1.11-.09-1.63.13-.48.2-.95.55-1.2,1.02-.21.39-.32.82-.34,1.26-.03.58.29,1.38.73,1.77,1.35,1.16,2.69,2.33,4.04,3.49.51.44,1.08.73,1.77.73.61,0,1.35-.27,1.77-.73s.76-1.1.73-1.77-.26-1.29-.73-1.77c-1.29-1.3-2.75-2.46-4.29-3.46-.53-.34-1.33-.42-1.93-.25s-1.21.61-1.49,1.15c-.31.58-.46,1.28-.25,1.93s.58,1.13,1.15,1.49h0Z"/>
    <path class="st1" d="M216.92,115.35c.95,1.12,2.2,1.93,3.36,2.82-.28-.21-.1-.08.07.06.11.09.22.18.32.28.28.25.55.51.81.78.49.51.96,1.05,1.42,1.59,2.08,2.43,4.16,4.86,6.23,7.29.85,1,2.67.94,3.54,0,.97-1.06.91-2.47,0-3.54-2.08-2.43-4.15-4.86-6.23-7.29-.89-1.04-1.79-2.05-2.87-2.9-.39-.3-.78-.6-1.17-.9-.14-.1-.28-.21-.42-.31-.2-.15-.17-.13,0,.01-.55-.43-1.06-.89-1.51-1.42-.85-1-2.67-.94-3.54,0-.98,1.07-.91,2.47,0,3.54h0Z"/>
    <path class="st0" d="M225.61,124.73c-1.61-1.32-3.25-2.61-4.92-3.86-.75-.56-1.5-1.12-2.26-1.66-.4-.29-.81-.58-1.22-.86-.19-.13-.38-.27-.58-.4-.1-.07-.19-.13-.29-.2-.47-.32.03-.22.41.45l.34,1.26v-.13c-.12.42-.24.84-.35,1.26-.73.63-.91.81-.53.54.09-.06.18-.12.27-.18.18-.12.36-.24.53-.36,1.08-.73,1.66-2.24.9-3.42-.7-1.08-2.26-1.68-3.42-.9-.72.48-1.56.92-2.02,1.68-.36.6-.51,1.48-.29,2.16.24.74.7,1.25,1.31,1.71,1,.74,2.04,1.43,3.05,2.16.5.36.99.73,1.48,1.09.23.18.47.35.7.53.14.11.28.21.42.32.06.05.47.36.16.13s.1.08.16.13c.14.11.28.22.41.32.23.18.46.36.69.54.5.4,1,.81,1.5,1.21.53.43,1.06.73,1.77.73.61,0,1.35-.27,1.77-.73.84-.92,1.08-2.65,0-3.54h0Z"/>
    <path class="st0" d="M215.6,117.4l-.07-.07c-.23-.24-.49-.42-.8-.52-.3-.16-.62-.23-.96-.22-.34-.01-.67.06-.96.22-.31.1-.58.27-.8.52l-.39.51c-.23.39-.34.81-.34,1.26l.09.66c.12.42.33.79.64,1.1l.07.07c.23.24.49.42.8.52.3.16.62.23.96.22.34.01.67-.06.96-.22.31-.1.58-.27.8-.52l.39-.51c.23-.39.34-.81.34-1.26l-.09-.66c-.12-.42-.33-.79-.64-1.1h0Z"/>
    <path class="st0" d="M214.4,116.57c-2.39-1.37-4.73-2.83-6.99-4.4-1.12-.77-2.22-1.57-3.3-2.39-.13-.1-.26-.2-.39-.3-.17-.13-.24-.2-.03-.02-.22-.18-.45-.36-.67-.55-.24-.21-.48-.43-.7-.67-.03-.03-.34-.37-.15-.15.2.23-.18-.26-.18-.27-.72-1.09-2.24-1.65-3.42-.9-1.09.7-1.66,2.25-.9,3.42.87,1.33,2,2.28,3.25,3.24,1.17.9,2.36,1.77,3.57,2.62,2.39,1.67,4.86,3.23,7.4,4.68,1.14.65,2.79.3,3.42-.9s.32-2.73-.9-3.42h0Z"/>
    <path class="st0" d="M205.74,113.61l2.25,1.27c.72.4,1.46.79,2.11,1.28l-.51-.39c1.2.95,2.14,2.17,3.49,2.94.78.44,1.75.46,2.52,0s1.17-1.26,1.24-2.16c.13-1.86-1.67-3.03-2.9-4.1-.5-.44-1.08-.73-1.77-.73-.61,0-1.35.27-1.77.73-.87.94-1.05,2.61,0,3.54.65.57,1.41,1.12,1.98,1.78l-.39-.51c.06.09.11.16.16.26l-.25-.6.03.09-.09-.66c.01.07.01.13,0,.2l3.76-2.16c-.24-.14-.47-.29-.69-.46l.51.39c-1.14-.91-2.05-2.03-3.29-2.82s-2.59-1.49-3.88-2.22c-1.14-.64-2.78-.31-3.42.9s-.32,2.73.9,3.42h0Z"/>
    <path class="st0" d="M210.99,110.52c-2.74-1.71-5.56-3.29-8.46-4.71s-6.13-1.87-9.17-3.02l-1.33,4.82c1.91.6,3.82,1.21,5.73,1.81,1.29.41,2.73-.48,3.08-1.75.39-1.43-.49-2.57-1.75-3.08-5.1-2.05-10.3-3.84-15.51-5.59-4.48-1.51-11.41-3.93-14.32,1.5-1.52,2.83,2.79,5.36,4.32,2.52.81-1.5,3.09-.92,4.4-.58,2.22.57,4.38,1.4,6.54,2.14,4.45,1.51,8.88,3.08,13.25,4.83l1.33-4.82c-1.91-.6-3.82-1.21-5.73-1.81-1.29-.41-2.73.48-3.08,1.75-.39,1.4.48,2.6,1.75,3.08,2.77,1.04,5.73,1.4,8.39,2.72s5.43,2.88,8.04,4.51c2.74,1.71,5.25-2.62,2.52-4.32h0Z"/>
    <path class="st0" d="M172.27,96.94c-3.4.6-6.81,1.2-10.16,2.06s-6.48,2.12-9.71,3.26-6.44,1.58-9.89,1.76-6.95.75-10.41,1.37-6.61,1.01-9.99.89-6.75-.64-10.09-1.26-6.83-1.39-10.26-1.96-7.02-.89-10.52-1.43c-7.25-1.12-14.19-3.52-20.55-7.18-2.79-1.61-5.31,2.71-2.52,4.32,5.89,3.39,12.32,5.87,18.99,7.2,3.56.71,7.18,1.04,10.77,1.53s6.97,1.2,10.44,1.89c7.16,1.41,14.23,2.45,21.51,1.41,3.43-.49,6.81-1.31,10.26-1.63s7.06-.26,10.52-1.15c3.74-.96,7.25-2.65,10.97-3.72,3.93-1.13,7.96-1.84,11.98-2.55,1.33-.23,2.08-1.86,1.75-3.08-.39-1.4-1.74-1.98-3.08-1.75h0Z"/>
    <path class="st0" d="M68.51,93.38c-1.54-.62-3.21-1.23-4.54-1.86-.35-.17-.7-.35-1.03-.55-.29-.17-.54-.35-.68-.48-.68-.6-1.25-1.33-1.89-1.98-2.58-2.64-5.8-4.65-8.77-6.81-1.09-.79-2.79-.19-3.42.9-.74,1.26-.2,2.63.9,3.42,2.95,2.13,5.97,4.04,8.42,6.73,1.23,1.34,2.55,2.45,4.22,3.21,1.79.82,3.65,1.51,5.47,2.24,1.25.5,2.75-.55,3.08-1.75.39-1.43-.49-2.57-1.75-3.08h0Z"/>
    <path class="st0" d="M107.91,115.17c7.37-.4,14.74-.47,22.12-.21v-5c-4.99.15-9.99-.04-14.97-.23-3.22-.13-3.21,4.85,0,5,6.49.3,12.99.14,19.46-.46,1.34-.12,2.5-1.06,2.5-2.5,0-1.26-1.15-2.63-2.5-2.5-6.47.6-12.97.75-19.46.46v5c4.99.2,9.98.38,14.97.23,3.22-.1,3.22-4.89,0-5-7.37-.26-14.75-.19-22.12.21-3.2.17-3.22,5.17,0,5h0Z"/>
    <path class="st1" d="M222.77,132.78c2.41,0,2.42-3.75,0-3.75s-2.42,3.75,0,3.75h0Z"/>
    <path class="st0" d="M231.37,129.34c-2.96-2.43-5.29-5.48-7.88-8.27-2.73-2.93-5.81-5.53-9.11-7.8l-2.52,4.32c.85.42,1.69.83,2.54,1.25l1.93-4.57c-.69-.12.06-.08.17.21-.03-.08-.33-.31-.39-.38-.08-.09-.16-.19-.24-.29.17.23.21.27.1.12-.23-.29-.45-.6-.69-.89-.89-1.09-1.95-1.61-3.34-1.79s-2.5,1.27-2.5,2.5c0,1.49,1.15,2.33,2.5,2.5-.22.02-.42-.03-.61-.14.18.12.19.12.03,0-.16-.13-.16-.11.01.04.06.07.13.13.19.2.45.45-.16-.23.14.17.21.27.41.55.63.81.67.83,1.59,1.56,2.67,1.75,1.23.21,2.46-.22,2.95-1.45.43-1.08.11-2.57-1.02-3.12-.85-.42-1.69-.83-2.54-1.25-2.9-1.42-5.18,2.49-2.52,4.32,3.03,2.08,5.8,4.52,8.31,7.24s4.8,5.67,7.67,8.04c1.04.86,2.52,1.02,3.54,0,.88-.88,1.05-2.67,0-3.54h0Z"/>
    <path class="st0" d="M51.73,85.94c9.33,8.55,21.2,13.75,33.08,17.75,3.06,1.03,6.19,1.93,9.39,2.43,3.57.56,7.17.67,10.78.78,6.52.2,12.99,1,19.5,1.3,7.25.34,14.7-.07,21.47-2.91,1.24-.52,2.14-1.65,1.75-3.08-.32-1.17-1.82-2.27-3.08-1.75-11.69,4.89-24.58,2.13-36.78,1.53-3.29-.16-6.59-.15-9.88-.43s-6.18-.96-9.18-1.86c-5.79-1.74-11.52-3.96-16.98-6.56-5.96-2.84-11.65-6.28-16.54-10.75-2.37-2.17-5.91,1.36-3.54,3.54h0Z"/>
    <path class="st0" d="M146.44,105.71c8.74-2.53,17.64-5.12,26.8-5.36s16.76,2.28,24.27,6.69c4.15,2.44,8.06,5.27,11.91,8.16,1.08.81,2.79.17,3.42-.9.75-1.28.19-2.61-.9-3.42-7.08-5.3-14.44-10.42-22.89-13.27-9.14-3.08-18.86-2.62-28.2-.77-5.32,1.05-10.54,2.54-15.74,4.05-3.08.89-1.77,5.72,1.33,4.82h0Z"/>
    <path class="st0" d="M52.44,81.44c-2.19,0-4.37.08-6.55.23-1.95.13-3.04,2.01-2.16,3.76,5.81,11.59,15.58,21.15,27.3,26.68,1.22.58,2.7.34,3.42-.9.64-1.09.33-2.84-.9-3.42-11.04-5.21-20.04-13.97-25.51-24.89l-2.16,3.76c2.18-.14,4.37-.22,6.55-.23,3.22-.01,3.22-5.01,0-5h0Z"/>
    <path class="st0" d="M145.58,105.62c9.12-3.05,18.6-4.78,28.21-5.1,3.21-.11,3.22-5.11,0-5-10.04.33-20.01,2.09-29.54,5.28-3.04,1.02-1.73,5.85,1.33,4.82h0Z"/>
    <path class="st0" d="M145.26,105.95l3.7-1.71c2.55-1.18.74-5.55-1.93-4.57-.67.25-1.33.43-2.03.56-2.73.51-2.14,5.28.66,4.91.91-.12,1.81-.24,2.72-.36,1.56-.21,2.9-1.43,2.41-3.16l-.07-.24-.25,1.93c-.57.45-.56.53.03.26.3-.1.6-.2.9-.29.6-.19,1.2-.37,1.81-.54,1.06-.3,2.13-.57,3.2-.81,2.24-.5,4.51-.9,6.79-1.2,4.53-.61,9.15-1.03,13.73-1,4.31.04,8.68.59,12.68,2.3s7.66,4.47,11.19,7.1l2.52-4.32c-2.64-1.9-5.28-3.81-7.91-5.71-1.1-.79-2.79-.19-3.42.9-.74,1.26-.2,2.63.9,3.42,2.64,1.9,5.28,3.81,7.91,5.71,1.1.79,2.79.19,3.42-.9.75-1.28.19-2.61-.9-3.42-3.13-2.33-6.29-4.69-9.79-6.44-3.69-1.85-7.58-2.88-11.67-3.35s-7.95-.31-11.91,0c-4.2.34-8.4.82-12.54,1.61-2.24.43-4.46.95-6.65,1.62s-5.66,1.61-4.78,4.71l2.41-3.16c-.91.12-1.81.24-2.72.36l.66,4.91c.7-.13,1.36-.32,2.03-.56l-1.93-4.57-3.7,1.71c-1.23.57-1.53,2.33-.9,3.42.74,1.26,2.19,1.47,3.42.9h0Z"/>
    <path class="st1" d="M50.11,77.66c-1.72-.21-3.46-.28-5.19-.22-.98.04-1.92.84-1.88,1.88.04.98.83,1.92,1.88,1.88,1.73-.07,3.47,0,5.19.22.44.05,1.03-.25,1.33-.55.33-.33.57-.86.55-1.33s-.18-.99-.55-1.33l-.38-.29c-.29-.17-.61-.25-.95-.26h0Z"/>
    <path class="st1" d="M60.83,81.62c3.02,1.2,6.32,1.46,9.54,1.43s6.75-.23,10.13-.35c2.41-.09,2.42-3.84,0-3.75-3.26.12-6.52.3-9.78.35-3.04.04-6.03-.15-8.89-1.29-.94-.38-2.06.41-2.31,1.31-.29,1.07.37,1.93,1.31,2.31h0Z"/>
    <path class="st1" d="M220.83,113.39c-2.06-1.6-4.14-3.17-6.24-4.71-.37-.27-1.02-.3-1.44-.19s-.91.46-1.12.86c-.23.44-.35.96-.19,1.44s.45.82.86,1.12c1.88,1.38,3.74,2.79,5.59,4.21l-.38-.29c.09.07.18.14.27.21.41.32.78.55,1.33.55.46,0,1.01-.2,1.33-.55s.57-.83.55-1.33c-.02-.46-.17-1.03-.55-1.33h0Z"/>
    <path class="st0" d="M222.87,128.65c.19.1.37.21.54.34l-.51-.39c.22.17.42.37.59.59l-.39-.51c.04.05.08.1.12.16l3.42-3.42c-.19-.12-.39-.24-.58-.36l-1.93,4.57c.06,0,.12.02.17.05l-.6-.25c.07.03.12.07.18.11l-.51-.39c.11.09.2.19.28.3l-.39-.51c.22.28.42.58.66.85.05.06.1.11.16.17.21.18.44.37.68.52.28.17.6.25.86.44l-.51-.39c.06.05.11.1.16.15l-.39-.51s.06.08.08.13c.16.29.37.53.64.7.24.22.52.37.85.45.33.1.66.12,1,.04.33-.02.64-.11.93-.3.53-.34,1-.86,1.15-1.49l.09-.66c0-.45-.12-.87-.34-1.26-.12-.23-.3-.44-.47-.63-.04-.05-.08-.09-.13-.13-.24-.21-.51-.43-.8-.57-.24-.12-.49-.21-.71-.36l.51.39c-.12-.1-.22-.21-.32-.34l.39.51c-.25-.32-.47-.67-.76-.96-.39-.38-.99-.79-1.54-.87-.33-.1-.66-.12-1-.04-.33.02-.64.11-.93.3l-.51.39c-.24.23-.42.49-.52.8-.11.19-.17.41-.17.63-.07.33-.06.66.04,1,.2.63.58,1.14,1.15,1.49.19.12.39.24.58.36l.6.25c.33.1.66.12,1,.04.23,0,.44-.06.63-.17.31-.1.58-.27.8-.52l.39-.51.25-.6c.1-.33.12-.66.04-1-.02-.33-.11-.64-.3-.93-.56-.81-1.25-1.53-2.14-1.98-.29-.18-.6-.28-.93-.3-.33-.07-.66-.06-1,.04-.33.08-.61.23-.85.45-.27.18-.49.41-.64.7-.31.58-.46,1.28-.25,1.93.19.6.57,1.2,1.15,1.49h0Z"/>
    <path class="st0" d="M207.74,114.13c.95.76,1.83,1.6,2.63,2.51.23.24.49.42.8.52.3.16.62.23.96.22.34.01.67-.06.96-.22.31-.1.58-.27.8-.52.44-.48.76-1.1.73-1.77l-.09-.66c-.12-.42-.33-.79-.64-1.1-.8-.91-1.68-1.75-2.63-2.51-.23-.24-.49-.42-.8-.52-.3-.16-.62-.23-.96-.22-.34-.01-.67.06-.96.22-.31.1-.58.27-.8.52-.44.48-.76,1.1-.73,1.77l.09.66c.12.42.33.79.64,1.1h0Z"/>
    <path class="st0" d="M205.5,107.75c-.11-.9-.34-1.64-.98-2.31-.34-.36-.78-.66-1.21-.89-.76-.41-1.43-.88-2.11-1.4-1.54-1.18-3.09-2.35-4.63-3.53-.46-.35-1.4-.42-1.93-.25s-.96.46-1.3.9-.56.97-.54,1.51c.03.7.29,1.23.73,1.77.73.9,1.46,1.79,2.3,2.59.91.86,1.9,1.63,2.9,2.38.41.3.81.64,1.25.9.82.49,1.85.44,2.66-.02.97-.54,1.47-1.83,1.16-2.89-.45-1.52-1.17-3.14-2.84-3.59-1.26-.34-2.77.43-3.08,1.75s.4,2.71,1.75,3.08l.09.03-.6-.25c.06.02.11.05.16.09l-.51-.39c.08.06.14.13.2.21l-.39-.51c.08.11.14.23.19.35l-.25-.6c.16.38.33.78.44,1.17v-1.33.07c.37-.5.75-1,1.14-1.49l-.06.03,1.93-.25-.08-.02.6.25c-.65-.37-1.26-.9-1.85-1.36l.51.39c-.75-.58-1.47-1.19-2.14-1.86-.7-.71-1.33-1.48-1.96-2.25l-3.03,3.93c1.28.97,2.56,1.95,3.84,2.92.61.46,1.2.94,1.83,1.38.51.36,1.11.58,1.6.95l-.51-.39c.08.06.14.13.21.2l-.39-.51c.06.08.1.15.15.24l-.25-.6c.02.06.04.12.05.18l-.09-.66v.1c.09.69.24,1.26.74,1.77.43.43,1.15.76,1.77.73s1.32-.24,1.77-.73c.42-.46.81-1.12.73-1.77h0Z"/>
    <path class="st0" d="M206.62,106.86c-1.04-.93-2.19-1.72-3.38-2.45-.55-.34-1.1-.67-1.65-1.01-.27-.17-.54-.35-.8-.53-.12-.08-.23-.16-.35-.25-.38-.27.13.13-.08-.06-.47-.42-.9-.86-1.36-1.3-.63-.61-1.37-.97-2.14-1.36-1.43-.73-2.85-1.46-4.28-2.19-1.16-.6-2.77-.34-3.42.9-.6,1.14-.35,2.78.9,3.42,1.35.69,2.69,1.38,4.04,2.07.35.18.7.35,1.05.54.13.07.25.14.37.21.22.11-.12-.2.03.05.31.51.97.98,1.44,1.34,1.07.85,2.2,1.57,3.36,2.28.52.32,1.04.63,1.55.97.24.16.47.33.7.49-.4-.28,0,0,.08.07.14.11.27.23.4.35.97.87,2.59,1.03,3.54,0,.88-.95,1.04-2.6,0-3.54h0Z"/>
    <path class="st0" d="M198.82,106.79c3.22,0,3.22-5,0-5s-3.22,5,0,5h0Z"/>
    <path class="st0" d="M201.11,102.81c-.42-.12-.72-.41-1.04-.7-.43-.38-.88-.74-1.33-1.1-.84-.65-1.73-1.25-2.65-1.77-1.89-1.07-3.94-1.88-6.05-2.39-1.56-.38-2.23,2.03-.66,2.41,2.04.49,3.97,1.26,5.78,2.32.85.5,1.68,1.06,2.44,1.68.9.74,1.71,1.62,2.86,1.95,1.55.44,2.21-1.97.66-2.41h0Z"/>
    <path class="st0" d="M195.98,101.97c2.7,1.85,5.35,3.78,7.93,5.79,1.15.9,2.27,1.82,3.35,2.79s2.14,1.8,3.49,2.31c1.14.43,2.18-1.31,1.22-2.09-2.89-2.33-5.81-4.61-8.75-6.87s-5.79-4.25-9-5.93c-1.42-.75-2.69,1.41-1.26,2.16,6.27,3.29,11.76,7.99,17.24,12.41l1.22-2.09c-1.18-.44-2.08-1.4-3.01-2.22-1.13-1-2.33-1.92-3.52-2.84-2.5-1.93-5.05-3.79-7.65-5.57-1.33-.91-2.58,1.25-1.26,2.16h0Z"/>
    <path class="st0" d="M210.54,112.97c.55.43.9,1.06,1.43,1.51.61.53,1.29.93,1.99,1.32l.96-2.28-.04-.02.3.13c-.09-.04-.16-.09-.24-.15l.25.2c-.19-.15-.34-.34-.5-.52-.18-.22-.38-.43-.58-.63-.45-.45-.91-.89-1.37-1.34s-1.31-.5-1.77,0-.5,1.28,0,1.77,1.04,1.01,1.55,1.52c.21.21.39.45.58.67.09.11.2.21.31.3.12.1.24.2.37.28.15.09.31.14.47.21.27.11.73.03.96-.13s.4-.34.51-.6c.23-.56.04-1.26-.51-1.56-.52-.29-1.04-.58-1.51-.94l.25.2c-.32-.25-.59-.53-.85-.84s-.49-.62-.81-.86c-.27-.21-.52-.37-.88-.37-.31,0-.67.14-.88.37s-.38.55-.37.88c.01.31.11.69.37.88h0Z"/>
    <path class="st1" d="M211.55,110.15l.66.8,2.65-2.65c-.35-.36-.77-.59-1.25-.74-.44-.13-1.06-.06-1.44.19-.35.22-.61.51-.77.9s-.22.83-.09,1.22l.19.45c.17.28.39.51.67.67.13.09.26.19.38.29l-.38-.29c.58.46,1.13.96,1.64,1.5.24.26.47.53.71.8.34.37.72.68,1.13.97.38.27,1.02.31,1.44.19s.91-.46,1.12-.86c.23-.44.35-.96.19-1.44l-.19-.45c-.17-.28-.39-.51-.67-.67-.05-.04-.11-.08-.16-.12l.38.29c-.6-.48-1.05-1.11-1.58-1.66-.65-.66-1.37-1.24-2.12-1.78l-1.44,3.43s.08.02.12.04l-.45-.19c.08.04.15.08.21.13l-.38-.29s.06.06.09.09c.33.34.85.55,1.33.55s1.01-.2,1.33-.55.57-.83.55-1.33l-.07-.5c-.09-.32-.25-.59-.48-.83l-.66-.8c-.29-.35-.89-.55-1.33-.55-.46,0-1.01.2-1.33.55s-.57.83-.55,1.33l.07.5c.09.32.25.59.48.83h0Z"/>
    <path class="st0" d="M71.79,112.08c4.02,2.27,8.07,4.76,12.78,5.16s9.33-1.6,13.13-4.24c1.11-.77,1.62-2.19.9-3.42-.64-1.1-2.31-1.67-3.42-.9-3.11,2.16-6.71,3.96-10.6,3.56s-7.08-2.69-10.25-4.48c-2.81-1.58-5.33,2.74-2.52,4.32h0Z"/>
    <path class="st0" d="M70.58,111.09c.77,1.37,2.22,1.99,3.58,2.63,1.45.67,2.92,1.29,4.41,1.88,1.32.53,2.64,1.03,3.96,1.55.73.28,1.48.55,2.28.53,1.08-.02,1.92-.41,2.76-1.08,1.03-.81.92-2.7,0-3.54-1.09-1-2.44-.87-3.54,0,.72-.35.88-.46.47-.33.19-.07.39-.07.58,0-.11.03-.5-.13-.6-.17-.52-.18-1.03-.4-1.55-.6-1.09-.42-2.18-.84-3.27-1.28-.23-.09-.47-.19-.7-.28-.08-.03-.93-.39-.56-.23-.54-.23-1.07-.47-1.61-.71s-1.06-.5-1.58-.77c-.16-.08-.32-.18-.48-.26-.23-.15-.2-.13.08.06.19.29.22.32.08.08-.64-1.14-2.3-1.62-3.42-.9s-1.58,2.2-.9,3.42h0Z"/>
    <path class="st0" d="M45.75,86.29c3.22,0,3.22-5,0-5s-3.22,5,0,5h0Z"/>
    <path class="st0" d="M45.7,86.19c3.22,0,3.22-5,0-5s-3.22,5,0,5h0Z"/>
    <path class="st1" d="M49.59,81.37c.73.11,1.47.13,2.21.13.68,0,1.38,0,2.03.12.33.06.67-.09.77-.44.08-.3-.1-.71-.44-.77-.73-.14-1.46-.16-2.2-.16-.67,0-1.39.01-2.03-.08-.33-.05-.67.08-.77.44-.08.3.1.72.44.77h0Z"/>
    <path class="st1" d="M49.28,81.31c.37.18.75.19,1.15.2.36,0,.72.03,1.08.05.73.05,1.47.12,2.2.22.33.04.64-.32.62-.62-.02-.38-.28-.58-.62-.62-.68-.09-1.36-.16-2.04-.21-.33-.02-.67-.04-1-.05-.16,0-.32,0-.48-.01-.07,0-.14,0-.21,0,.11.01-.17-.06-.07-.01-.3-.15-.68-.08-.86.22-.16.28-.08.71.22.86h0Z"/>
    <path class="st1" d="M54.19,81.85c.8,0,.81-1.25,0-1.25s-.81,1.25,0,1.25h0Z"/>
    <path class="st1" d="M53.72,81.79c.14.03.29.05.44.06.1,0,.19.01.29,0l-.6-.46s.01.04.02.06c.02.08.06.15.11.21.04.07.1.12.18.16.07.05.15.07.23.07.08.02.17.01.25-.01l.15-.06c.09-.06.17-.13.22-.22l.06-.15c.03-.11.03-.22,0-.33,0-.02-.01-.04-.02-.06l-.06-.15c-.04-.07-.09-.13-.16-.18-.04-.04-.08-.07-.14-.08-.07-.04-.15-.06-.24-.05-.14,0-.27,0-.4-.02l.17.02c-.05,0-.1-.02-.16-.03-.08-.03-.17-.03-.25-.01-.08,0-.16.03-.23.07-.07.04-.13.09-.18.16-.06.06-.09.13-.11.21l-.02.17c0,.11.03.22.09.32l.1.13c.08.08.17.13.28.16h0Z"/>
    <path class="st0" d="M157.51,114.66c.12-.03.23-.06.34-.1.25-.09.5-.2.74-.31.06-.02.11-.05.17-.08.1-.05.2-.11.3-.18.27-.19.53-.39.78-.61.24-.23.42-.49.52-.8.16-.3.23-.62.22-.96.01-.34-.06-.67-.22-.96-.1-.31-.27-.58-.52-.8l-.51-.39c-.39-.23-.81-.34-1.26-.34l-.66.09c-.42.12-.79.33-1.1.64-.05.05-.1.09-.16.13l.51-.39c-.19.15-.4.27-.61.36l.6-.25c-.14.06-.29.11-.45.15-.33.08-.61.23-.85.45-.27.18-.49.41-.64.7-.18.29-.28.6-.3.93-.07.33-.06.66.04,1l.25.6c.22.38.52.67.9.9l.6.25c.44.12.89.12,1.33,0h0Z"/>
    <path class="st0" d="M157.31,114.88c6.89-2.55,14.12-4,21.46-4.19,3.56-.09,7.43-.14,10.91.74,1.76.45,3.44.88,5.24,1.17,1.63.26,3.2.65,4.5,1.72,1.04.86,2.52,1.02,3.54,0,.89-.89,1.05-2.67,0-3.54-1.51-1.25-3.17-2.21-5.09-2.7s-4-.67-5.97-1.23c-3.9-1.12-8.16-1.23-12.2-1.19-8.08.1-16.14,1.58-23.72,4.38-1.27.47-2.13,1.69-1.75,3.08.33,1.22,1.8,2.22,3.08,1.75h0Z"/>
    <path class="st0" d="M202.13,115.24c.07,0,.14,0,.2,0l-.66-.09c.2.03.39.08.58.16l-.6-.25c.48.22.89.55,1.32.85s.88.6,1.33.87c1.1.66,2.26,1.19,3.44,1.67.56.23,1.43.04,1.93-.25s1.01-.9,1.15-1.49c.15-.64.11-1.36-.25-1.93l-.39-.51c-.31-.31-.68-.52-1.1-.64-.11-.04-.21-.09-.32-.13l.6.25c-1.12-.47-2.19-1.04-3.21-1.71-.49-.32-.95-.69-1.44-1-.77-.5-1.66-.79-2.58-.81-1.31-.01-2.56,1.16-2.5,2.5s1.1,2.48,2.5,2.5h0Z"/>
    <path class="st0" d="M209.07,117.8c-.12-.1-.24-.19-.37-.26s-.28-.13-.42-.18c-.08-.03-.17-.03-.25-.01-.08,0-.16.03-.23.07-.07.04-.13.09-.18.16-.06.06-.09.13-.11.21l-.02.17c0,.11.03.22.09.32l.1.13c.08.08.17.13.28.16.04.01.08.03.13.05l-.15-.06c.13.05.25.12.35.21l-.13-.1s.02.02.03.03c.06.06.12.1.2.13.07.04.15.06.24.05.09,0,.17-.01.24-.05.08-.03.14-.07.2-.13l.1-.13c.06-.1.08-.2.09-.32l-.02-.17c-.03-.11-.08-.2-.16-.28h0Z"/>
    <path class="st0" d="M213.67,121.81c.8,0,.81-1.25,0-1.25s-.81,1.25,0,1.25h0Z"/>
  </g>
</svg>