<?xml version="1.0" encoding="UTF-8"?>
<svg id="Layer_1" xmlns="http://www.w3.org/2000/svg" version="1.1" viewBox="0 0 336 224">
  <!-- Generator: Adobe Illustrator 29.8.2, SVG Export Plug-In . SVG Version: 2.1.1 Build 3)  -->
  <defs>
    <style>
      .st0 {
        fill: #757a84;
      }

      .st1 {
        fill: #fff;
      }

      .st2 {
        fill: #03359d;
      }

      .st3 {
        fill: #61285f;
      }
    </style>
  </defs>
  <path class="st1" d="M150.33,44.28"/>
  <path class="st2" d="M18.66,76.87c-.69,23.02,54.89,92.83,109.54,82.93,26.28-4.76,30.16-25,60.23-32.22,31-7.44,61.3,5.8,83.49,19.61-3.91-12-12.4-32.35-31.1-50.43-20.34-19.67-42.26-26.59-54.35-30.26-21.99-6.68-40.36-6.72-76.2-6.82-3.43,0-19.88,0-42.58,0h-19.05s-5.42.12-6.14.14c-7.65.19-14.84.37-19.07,3.88-4.48,3.71-4.68,10.33-4.76,13.17Z"/>
  <path class="st2" d="M85.05,112"/>
  <path class="st2" d="M81.69,99.84"/>
  <path class="st2" d="M62.08,89.48"/>
  <path class="st2" d="M63.48,86.68"/>
  <path class="st2" d="M71.05,92"/>
  <path class="st0" d="M42.15,61.21c-10.86.85,17.59,28.42,21.91,31.49,32.9,28.04,73.88,35.86,115.15,30.39,4.71-.73,8.66-1.5,12.69-2.88,2.1-.83,3.66-1.29,4.78-2.85,1.42-4.72-19.54-4.36-24.92-4.45-30.21.66-56.16-1.19-80.68-20.77-8.77-6.57-16.73-13.8-26.14-20.19-7.03-4.45-14.61-9.88-22.71-10.74h-.08Z"/>
  <path class="st0" d="M266.88,139.07"/>
  <path class="st0" d="M263.51,131.22"/>
  <path class="st0" d="M180.59,115.81c-.09-1.12,39.8-13.71,68.66,4.64,2.66,1.69,4.63,3.26,5.58,4.05,10.28,9.1,16.27,20.23,15.69,20.73-.42.36-3.73-4.68-11.12-9.53-6.02-3.94-11.44-6.17-21.66-10.09-1.91-.73-4.46-1.66-7.8-2.53-3.55-.92-6.3-1.33-7-1.43-5.49-.79-6.36-.02-14.05-.33-5.54-.22-8.39-.36-12.14-1.59-2.57-.84-2.98-1.35-5.79-2.24-6.34-2-10.34-1.33-10.37-1.68Z"/>
  <path class="st3" d="M20.35,67.41c-5.64,13.28,13.98,45.03,41.29,57,29.22,12.81,61.24.35,61.08-2.93-.18-3.54-37.63,7.1-64.72-14.7-19.77-15.91-28.34-44.55-35.24-42.24-1.36.46-2,1.89-2.41,2.87Z"/>
  <path class="st0" d="M180.59,118.05"/>
  <path class="st0" d="M223.3,121.17c-7.98-.48-15.96-.95-23.94-1.43"/>
  <path class="st0" d="M188.56,118.05c6.77,1.09,13.55,2.18,20.32,3.27-11.58.23-23.15.47-34.73.7,4.8-1.32,9.61-2.65,14.41-3.97Z"/>
</svg>